{
	"asset":{
		"generator":"Khronos glTF Blender I/O v3.6.6",
		"version":"2.0"
	},
	"scene":0,
	"scenes":[
		{
			"name":"Scene",
			"nodes":[
				0
			]
		}
	],
	"nodes":[
		{
			"mesh":0,
			"name":"Cube"
		}
	],
	"materials":[
		{
			"doubleSided":true,
			"name":"color1",
			"pbrMetallicRoughness":{
				"baseColorFactor":[
					1,
					1,
					1,
					1
				],
				"metallicFactor":0,
				"roughnessFactor":0
			}
		},
		{
			"doubleSided":true,
			"name":"data-connector",
			"pbrMetallicRoughness":{
				"baseColorFactor":[
					0,
					0.05000007152557373,
					0.5,
					1
				],
				"metallicFactor":1,
				"roughnessFactor":1
			}
		},
		{
			"doubleSided":true,
			"name":"lv-connector",
			"pbrMetallicRoughness":{
				"baseColorFactor":[
					0.5,
					0,
					0,
					1
				],
				"metallicFactor":1,
				"roughnessFactor":1
			}
		}
	],
	"meshes":[
		{
			"name":"Cube",
			"primitives":[
				{
					"attributes":{
						"POSITION":0,
						"NORMAL":1
					},
					"indices":2,
					"material":0
				},
				{
					"attributes":{
						"POSITION":3,
						"NORMAL":4
					},
					"indices":5,
					"material":1
				},
				{
					"attributes":{
						"POSITION":6,
						"NORMAL":7
					},
					"indices":8,
					"material":2
				}
			]
		}
	],
	"accessors":[
		{
			"bufferView":0,
			"componentType":5126,
			"count":184,
			"max":[
				0.5,
				0.4999995231628418,
				0.15899959206581116
			],
			"min":[
				-0.5,
				-0.4999997019767761,
				-0.09100040793418884
			],
			"type":"VEC3"
		},
		{
			"bufferView":1,
			"componentType":5126,
			"count":184,
			"type":"VEC3"
		},
		{
			"bufferView":2,
			"componentType":5123,
			"count":606,
			"type":"SCALAR"
		},
		{
			"bufferView":3,
			"componentType":5126,
			"count":11192,
			"max":[
				0.5206489562988281,
				0.4673590660095215,
				0.12635916471481323
			],
			"min":[
				-0.5206490159034729,
				-0.4673593044281006,
				-0.06669251620769501
			],
			"type":"VEC3"
		},
		{
			"bufferView":4,
			"componentType":5126,
			"count":11192,
			"type":"VEC3"
		},
		{
			"bufferView":5,
			"componentType":5123,
			"count":31908,
			"type":"SCALAR"
		},
		{
			"bufferView":6,
			"componentType":5126,
			"count":288,
			"max":[
				0.030625849962234497,
				0.5203798413276672,
				0.06462544202804565
			],
			"min":[
				-0.030625849962234497,
				0.4999995231628418,
				0.00337374210357666
			],
			"type":"VEC3"
		},
		{
			"bufferView":7,
			"componentType":5126,
			"count":288,
			"type":"VEC3"
		},
		{
			"bufferView":8,
			"componentType":5123,
			"count":930,
			"type":"SCALAR"
		}
	],
	"bufferViews":[
		{
			"buffer":0,
			"byteLength":2208,
			"byteOffset":0,
			"target":34962
		},
		{
			"buffer":0,
			"byteLength":2208,
			"byteOffset":2208,
			"target":34962
		},
		{
			"buffer":0,
			"byteLength":1212,
			"byteOffset":4416,
			"target":34963
		},
		{
			"buffer":0,
			"byteLength":134304,
			"byteOffset":5628,
			"target":34962
		},
		{
			"buffer":0,
			"byteLength":134304,
			"byteOffset":139932,
			"target":34962
		},
		{
			"buffer":0,
			"byteLength":63816,
			"byteOffset":274236,
			"target":34963
		},
		{
			"buffer":0,
			"byteLength":3456,
			"byteOffset":338052,
			"target":34962
		},
		{
			"buffer":0,
			"byteLength":3456,
			"byteOffset":341508,
			"target":34962
		},
		{
			"buffer":0,
			"byteLength":1860,
			"byteOffset":344964,
			"target":34963
		}
	],
	"buffers":[
		{
			"byteLength":346824,
			"uri":"Router.bin"
		}
	]
}
