{
	"asset":{
		"generator":"Khronos glTF Blender I/O v3.6.6",
		"version":"2.0"
	},
	"scene":0,
	"scenes":[
		{
			"name":"Scene",
			"nodes":[
				0
			]
		}
	],
	"nodes":[
		{
			"mesh":0,
			"name":"bar",
			"rotation":[
				0.7071068286895752,
				0,
				0,
				0.7071068286895752
			]
		}
	],
	"materials":[
		{
			"doubleSided":true,
			"name":"color2",
			"pbrMetallicRoughness":{
				"baseColorFactor":[
					0.800000011920929,
					0.800000011920929,
					0.800000011920929,
					1
				],
				"metallicFactor":1,
				"roughnessFactor":1
			}
		},
		{
			"doubleSided":true,
			"name":"lv-connector",
			"pbrMetallicRoughness":{
				"baseColorFactor":[
					0.5,
					0,
					0,
					1
				],
				"metallicFactor":1,
				"roughnessFactor":1
			}
		},
		{
			"doubleSided":true,
			"name":"hv-connector",
			"pbrMetallicRoughness":{
				"baseColorFactor":[
					0.5,
					0.1499999761581421,
					0,
					1
				],
				"metallicFactor":1,
				"roughnessFactor":1
			}
		}
	],
	"meshes":[
		{
			"name":"Cube.001",
			"primitives":[
				{
					"attributes":{
						"POSITION":0,
						"NORMAL":1
					},
					"indices":2,
					"material":0
				},
				{
					"attributes":{
						"POSITION":3,
						"NORMAL":4
					},
					"indices":5,
					"material":1
				},
				{
					"attributes":{
						"POSITION":6,
						"NORMAL":7
					},
					"indices":8,
					"material":2
				}
			]
		}
	],
	"accessors":[
		{
			"bufferView":0,
			"componentType":5126,
			"count":96,
			"max":[
				0.5,
				0.125,
				0.125
			],
			"min":[
				-0.5,
				-0.125,
				-0.125
			],
			"type":"VEC3"
		},
		{
			"bufferView":1,
			"componentType":5126,
			"count":96,
			"type":"VEC3"
		},
		{
			"bufferView":2,
			"componentType":5123,
			"count":132,
			"type":"SCALAR"
		},
		{
			"bufferView":3,
			"componentType":5126,
			"count":2496,
			"max":[
				0.4681258499622345,
				-0.12499992549419403,
				0.030625849962234497
			],
			"min":[
				-0.4681258499622345,
				-0.14538034796714783,
				-0.030625851824879646
			],
			"type":"VEC3"
		},
		{
			"bufferView":4,
			"componentType":5126,
			"count":2496,
			"type":"VEC3"
		},
		{
			"bufferView":5,
			"componentType":5123,
			"count":7968,
			"type":"SCALAR"
		},
		{
			"bufferView":6,
			"componentType":5126,
			"count":2784,
			"max":[
				0.44535043835639954,
				0.1667194664478302,
				0.07035043835639954
			],
			"min":[
				-0.44535043835639954,
				0.12500016391277313,
				-0.07035043835639954
			],
			"type":"VEC3"
		},
		{
			"bufferView":7,
			"componentType":5126,
			"count":2784,
			"type":"VEC3"
		},
		{
			"bufferView":8,
			"componentType":5123,
			"count":8592,
			"type":"SCALAR"
		}
	],
	"bufferViews":[
		{
			"buffer":0,
			"byteLength":1152,
			"byteOffset":0,
			"target":34962
		},
		{
			"buffer":0,
			"byteLength":1152,
			"byteOffset":1152,
			"target":34962
		},
		{
			"buffer":0,
			"byteLength":264,
			"byteOffset":2304,
			"target":34963
		},
		{
			"buffer":0,
			"byteLength":29952,
			"byteOffset":2568,
			"target":34962
		},
		{
			"buffer":0,
			"byteLength":29952,
			"byteOffset":32520,
			"target":34962
		},
		{
			"buffer":0,
			"byteLength":15936,
			"byteOffset":62472,
			"target":34963
		},
		{
			"buffer":0,
			"byteLength":33408,
			"byteOffset":78408,
			"target":34962
		},
		{
			"buffer":0,
			"byteLength":33408,
			"byteOffset":111816,
			"target":34962
		},
		{
			"buffer":0,
			"byteLength":17184,
			"byteOffset":145224,
			"target":34963
		}
	],
	"buffers":[
		{
			"byteLength":162408,
			"uri":"PowerDistributor.bin"
		}
	]
}
