{
	"asset":{
		"generator":"Khronos glTF Blender I/O v3.6.6",
		"version":"2.0"
	},
	"scene":0,
	"scenes":[
		{
			"name":"Scene",
			"nodes":[
				0
			]
		}
	],
	"nodes":[
		{
			"mesh":0,
			"name":"thruster"
		}
	],
	"materials":[
		{
			"doubleSided":true,
			"name":"thruster-nozzle",
			"pbrMetallicRoughness":{
				"baseColorFactor":[
					0.31081247329711914,
					0.31081247329711914,
					0.31081247329711914,
					1
				],
				"metallicFactor":1,
				"roughnessFactor":0
			}
		},
		{
			"doubleSided":true,
			"name":"thruster-body",
			"pbrMetallicRoughness":{
				"baseColorFactor":[
					1,
					1,
					1,
					1
				],
				"metallicFactor":1,
				"roughnessFactor":1
			}
		},
		{
			"doubleSided":true,
			"name":"thruster-inner",
			"pbrMetallicRoughness":{
				"baseColorFactor":[
					0,
					0,
					0,
					1
				],
				"metallicFactor":1,
				"roughnessFactor":1
			}
		},
		{
			"doubleSided":true,
			"name":"connector",
			"pbrMetallicRoughness":{
				"baseColorFactor":[
					0,
					0.003763354616239667,
					0.49692288041114807,
					1
				],
				"metallicFactor":1,
				"roughnessFactor":1
			}
		}
	],
	"meshes":[
		{
			"name":"Cylinder.011",
			"primitives":[
				{
					"attributes":{
						"POSITION":0,
						"NORMAL":1
					},
					"indices":2,
					"material":0
				},
				{
					"attributes":{
						"POSITION":3,
						"NORMAL":4
					},
					"indices":5,
					"material":1
				},
				{
					"attributes":{
						"POSITION":6,
						"NORMAL":7
					},
					"indices":8,
					"material":2
				},
				{
					"attributes":{
						"POSITION":9,
						"NORMAL":10
					},
					"indices":11,
					"material":3
				}
			]
		}
	],
	"accessors":[
		{
			"bufferView":0,
			"componentType":5126,
			"count":423,
			"max":[
				0.17057619988918304,
				0.1705763041973114,
				0.021771272644400597
			],
			"min":[
				-0.17057637870311737,
				-0.1705763041973114,
				-0.12055087834596634
			],
			"type":"VEC3"
		},
		{
			"bufferView":1,
			"componentType":5126,
			"count":423,
			"type":"VEC3"
		},
		{
			"bufferView":2,
			"componentType":5123,
			"count":1884,
			"type":"SCALAR"
		},
		{
			"bufferView":3,
			"componentType":5126,
			"count":392,
			"max":[
				0.2499999850988388,
				0.25,
				0.1250002086162567
			],
			"min":[
				-0.2499999850988388,
				-0.25,
				-0.02496873401105404
			],
			"type":"VEC3"
		},
		{
			"bufferView":4,
			"componentType":5126,
			"count":392,
			"type":"VEC3"
		},
		{
			"bufferView":5,
			"componentType":5123,
			"count":1245,
			"type":"SCALAR"
		},
		{
			"bufferView":6,
			"componentType":5126,
			"count":84,
			"max":[
				0.17057619988918304,
				0.1705763041973114,
				0.021771272644400597
			],
			"min":[
				-0.17057637870311737,
				-0.1705763041973114,
				-8.755007030458728e-08
			],
			"type":"VEC3"
		},
		{
			"bufferView":7,
			"componentType":5126,
			"count":84,
			"type":"VEC3"
		},
		{
			"bufferView":8,
			"componentType":5123,
			"count":252,
			"type":"SCALAR"
		},
		{
			"bufferView":9,
			"componentType":5126,
			"count":302,
			"max":[
				0.02985917031764984,
				0.2645600438117981,
				0.09235928952693939
			],
			"min":[
				-0.02985917031764984,
				0.2477686107158661,
				0.03264094516634941
			],
			"type":"VEC3"
		},
		{
			"bufferView":10,
			"componentType":5126,
			"count":302,
			"type":"VEC3"
		},
		{
			"bufferView":11,
			"componentType":5123,
			"count":834,
			"type":"SCALAR"
		}
	],
	"bufferViews":[
		{
			"buffer":0,
			"byteLength":5076,
			"byteOffset":0,
			"target":34962
		},
		{
			"buffer":0,
			"byteLength":5076,
			"byteOffset":5076,
			"target":34962
		},
		{
			"buffer":0,
			"byteLength":3768,
			"byteOffset":10152,
			"target":34963
		},
		{
			"buffer":0,
			"byteLength":4704,
			"byteOffset":13920,
			"target":34962
		},
		{
			"buffer":0,
			"byteLength":4704,
			"byteOffset":18624,
			"target":34962
		},
		{
			"buffer":0,
			"byteLength":2490,
			"byteOffset":23328,
			"target":34963
		},
		{
			"buffer":0,
			"byteLength":1008,
			"byteOffset":25820,
			"target":34962
		},
		{
			"buffer":0,
			"byteLength":1008,
			"byteOffset":26828,
			"target":34962
		},
		{
			"buffer":0,
			"byteLength":504,
			"byteOffset":27836,
			"target":34963
		},
		{
			"buffer":0,
			"byteLength":3624,
			"byteOffset":28340,
			"target":34962
		},
		{
			"buffer":0,
			"byteLength":3624,
			"byteOffset":31964,
			"target":34962
		},
		{
			"buffer":0,
			"byteLength":1668,
			"byteOffset":35588,
			"target":34963
		}
	],
	"buffers":[
		{
			"byteLength":37256,
			"uri":"Thruster.bin"
		}
	]
}
